# AST/ASF file generated using VICON BodyLanguage
# -----------------------------------------------
:version 1.10
:name VICON
:units
  mass 1.0
  length 0.45
  angle deg
:documentation
   .ast/.asf automatically generated from VICON data using
   VICON BodyBuilder and BodyLanguage model FoxedUp or BRILLIANT.MOD
:root
   order TX TY TZ RX RY RZ
   axis XYZ
   position 0 0 0  
   orientation 0 0 0 
:bonedata
  begin
     id 1 
     name lhipjoint
     direction 0.54267 -0.795011 0.271047 
     length 2.39899 
     axis 0 0 0  XYZ
  end
  begin
     id 2 
     name lfemur
     direction 0.34202 -0.939693 0  
     length 7.49701  
     axis 0 0 20  XYZ
    dof rx ry rz
    limits (-160.0 20.0)
           (-70.0 70.0)
           (-60.0 70.0)
  end
  begin
     id 3 
     name ltibia
     direction 0.34202 -0.939693 0   
     length 8.1668   
     axis 0 0 20   XYZ
    dof rx
    limits (-10.0 170.0)
  end
  begin
     id 4 
     name lfoot
     direction 0.0736283 -0.202292 0.976554   
     length 2.13544   
     axis -90 7.62852e-016 20   XYZ
    dof rx rz
    limits (-45.0 90.0)
           (-70.0 20.0)
  end
  begin
     id 5 
     name ltoes
     direction 1.53557e-011 -4.22024e-011 1   
     length 1.07411   
     axis -90 7.62852e-016 20   XYZ
    dof rx
    limits (-90.0 20.0)
  end
  begin
     id 6 
     name rhipjoint
     direction -0.538061 -0.797813 0.272002   
     length 2.39057  
     axis 0 0 0  XYZ 
  end
  begin
     id 7 
     name rfemur
     direction -0.34202 -0.939693 0   
     length 7.50152   
     axis 0 0 -20   XYZ
    dof rx ry rz
    limits (-160.0 20.0)
           (-70.0 70.0)
           (-70.0 60.0)
  end
  begin
     id 8 
     name rtibia
     direction -0.34202 -0.939693 0   
     length 8.05793   
     axis 0 0 -20   XYZ
    dof rx
    limits (-10.0 170.0)
 end
 begin
     id 9 
     name rfoot
     direction -0.0765195 -0.210236 0.974652   
     length 2.28698  
     axis -90 -7.62852e-016 -20   XYZ
    dof rx rz
    limits (-45.0 90.0)
           (-20.0 70.0)
  end
  begin
     id 10 
     name rtoes
     direction -1.53542e-011 -4.21847e-011 1   
     length 1.14762   
     axis -90 -7.62852e-016 -20   XYZ
    dof rx
    limits (-90.0 20.0)
  end
  begin
     id 11 
     name lowerback
     direction -0.0217239 0.996592 -0.0795765   
     length 2.08176   
     axis 0 0 0   XYZ
    dof rx ry rz
    limits (-20.0 45.0)
           (-30.0 30.0)
           (-30.0 30.0)
  end
  begin
     id 12 
     name upperback
     direction -0.00563773 0.999651 -0.0258155   
     length 2.08898   
     axis 0 0 0   XYZ
    dof rx ry rz
    limits (-20.0 45.0)
           (-30.0 30.0)
           (-30.0 30.0)
  end
  begin
     id 13 
     name thorax
     direction 0.0032706 0.999923 0.0119599   
     length 2.0968   
     axis 0 0 0   XYZ
    dof rx ry rz
    limits (-20.0 45.0)
           (-30.0 30.0)
           (-30.0 30.0)
  end
  begin
     id 14 
     name lowerneck
     direction -0.0285886 0.99568 0.0883427   
     length 1.81272   
     axis 0 0 0   XYZ
    dof rx ry rz
    limits (-20.0 45.0)
           (-30.0 30.0)
           (-30.0 30.0)
  end
  begin
     id 15 
     name upperneck
     direction 0.0807535 0.97985 -0.18268   
     length 1.82518   
     axis 0 0 0   XYZ
    dof rx ry rz
    limits (-20.0 45.0)
           (-30.0 30.0)
           (-30.0 30.0)
  end
  begin
     id 16
     name head
     direction 0.0236605 0.997053 -0.0729767  
     length 1.84443  
     axis 0 0 0   XYZ
    dof rx ry rz
    limits (-20.0 45.0)
           (-30.0 30.0)
           (-30.0 30.0)
  end
  begin
     id 17 
     name lclavicle
     direction 0.918986 0.39378 -0.0200683  
     length 3.27822  
     axis 0 0 0   XYZ
    dof ry rz
    limits (-20.0 10.0)
           (0.0 20.0)
  end
  begin
     id 18 
     name lhumerus
     direction 1 -4.4897e-011 2.09544e-027   
     length 5.5568   
     axis 180 -30 -90   XYZ
    dof rx ry rz
    limits (-60.0 90.0)
           (-90.0 90.0)
           (-90.0 90.0)
  end
  begin
     id 19
     name lradius
     direction 1 -4.48957e-011 -1.27696e-026   
     length 3.63979   
     axis 180 -30 -90   XYZ
    dof rx
    limits (-10.0 170.0)
  end
  begin
     id 20
     name lwrist
     direction 1 -4.49001e-011 -1.49001e-026   
     length 1.8199   
     axis 9.0955e-015 90 90   XYZ
    dof ry
    limits (-180.0 0.0)
 end
  begin
     id 21 
     name lhand
     direction 1 -4.48709e-011 -2.9758e-026   
     length 0.569419   
     axis 1.90115e-014 90 90   XYZ
    dof rx rz
    limits (-90.0 90.0)
           (-45.0 45.0)
  end
  begin
     id 22 
     name lfingers
     direction 1 -4.49175e-011 -5.96505e-026   
     length 0.45908   
     axis 3.80223e-014 90 90   XYZ
    dof rx
    limits (0.0 90.0)
  end
  begin
     id 23
     name lthumb
     direction 0.707107 -6.34864e-011 0.707107   
     length 0.65915   
     axis -90 45 -3.84942e-014   XYZ
    dof rx rz
    limits (-45.0 45.0)
           (-45.0 45.0)
  end
  begin
     id 24 
     name rclavicle
     direction -0.911913 0.396426 -0.106115   
     length 3.46301  
     axis 0 0 0   XYZ 
    dof ry rz
    limits (-10.0 20.0)
           (-20.0 0.0)
  end
  begin
     id 25 
     name rhumerus
     direction -1 -4.48965e-011 7.78516e-028  
     length 5.34339   
     axis 180 30 90   XYZ
    dof rx ry rz
    limits (-90.0 60.0)
           (-90.0 90.0)
           (-90.0 90.0)
  end
  begin
     id 26 
     name rradius
     direction -1 -4.48948e-011 -5.79823e-027   
     length 3.65101   
     axis 180 30 90   XYZ
    dof rx
    limits (-10.0 170.0)
  end
  begin
     id 27 
     name rwrist
     direction -1 -4.48995e-011 -1.48996e-026   
     length 1.8255   
     axis 9.0955e-015 -90 -90   XYZ
    dof ry
    limits (-180.0 0.0)
  end
  begin
     id 28
     name rhand
     direction -1 -4.48957e-011 -2.97937e-026   
     length 0.694249   
     axis 1.90115e-014 -90 -90   XYZ
    dof rx rz
    limits (-90.0 90.0)
           (-45.0 45.0)
  end
  begin
     id 29
     name rfingers
     direction -1 -4.4898e-011 -5.95943e-026   
     length 0.559721   
     axis 3.80223e-014 -90 -90   XYZ
    dof rx
    limits (0.0 90.0)
  end
  begin
     id 30
     name rthumb
     direction -0.707107 -6.34969e-011 0.707107   
     length 0.803651   
     axis -90 -45 3.84942e-014   XYZ
    dof rx rz
    limits (-45.0 45.0)
           (-45.0 45.0)
  end
:hierarchy
  begin
    root lhipjoint rhipjoint lowerback
    lhipjoint lfemur
    lfemur ltibia
    ltibia lfoot
    lfoot ltoes
    rhipjoint rfemur
    rfemur rtibia
    rtibia rfoot
    rfoot rtoes
    lowerback upperback
    upperback thorax
    thorax lowerneck lclavicle rclavicle
    lowerneck upperneck
    upperneck head
    lclavicle lhumerus
    lhumerus lradius
    lradius lwrist
    lwrist lhand lthumb
    lhand lfingers
    rclavicle rhumerus
    rhumerus rradius
    rradius rwrist
    rwrist rhand rthumb
    rhand rfingers
  end

#!OML:ASF H:\Terrain\Walking\May29\JustinRory\rory.ASF
:FULLY-SPECIFIED
:DEGREES
717
root 10.3495 17.7763 -17.1695 -356.527 -6.96063 2.87751
lowerback 1.65817 1.66854 -1.45034
upperback 1.84825 2.21876 -1.37457
thorax 0.963796 1.101 -0.612901
lowerneck -10.7517 0.111006 -2.23
upperneck 12.4102 0.62671 -0.755041
head 5.50816 0.145565 0.176483
rclavicle 3.53775e-015 7.57867e-015
rhumerus -65.5341 -19.9135 -64.9889
rradius 50.1176
rwrist -7.7256
rhand -12.4868 31.6042
rfingers 7.12502
rthumb 13.5878 2.0676
lclavicle 3.53775e-015 7.57867e-015
lhumerus -68.3701 27.1037 54.3455
lradius 37.6337
lwrist 41.389
lhand -21.9803 30.8491
lfingers 7.12502
lthumb 4.42775 60.7828
rfemur -2.48667 10.4737 18.8882
rtibia 24.6703
rfoot -22.9564 -19.9425
rtoes 8.70061
lfemur -17.8987 10.0585 -16.23
ltibia 38.0176
lfoot -23.0378 19.5216
ltoes -9.86936
718
root 10.3231 17.7648 -17.209 -356.646 -7.36505 2.45748
lowerback 2.04153 1.62956 -1.01716
upperback 2.13414 2.16592 -1.14447
thorax 1.04915 1.07749 -0.625789
lowerneck -11.6744 0.309926 -2.1557
upperneck 12.4512 0.944801 -0.994978
head 5.67681 0.28255 0.116262
rclavicle 2.82958e-014 6.13748e-015
rhumerus -63.8151 -19.3318 -65.9857
rradius 49.4247
rwrist -6.92032
rhand -12.6137 32.524
rfingers 7.12502
rthumb 13.4655 2.97932
lclavicle 2.82958e-014 6.13748e-015
lhumerus -66.4941 27.0319 56.2483
lradius 36.915
lwrist 40.2956
lhand -21.7215 31.1348
lfingers 7.12502
lthumb 4.67773 61.0631
rfemur -2.57719 10.2654 19.3101
rtibia 24.8056
rfoot -22.8923 -19.2525
rtoes 7.77542
lfemur -18.3506 10.2631 -15.6069
ltibia 39.1017
lfoot -22.8834 19.4048
ltoes -9.71305
719
root 10.2952 17.7611 -17.245 -356.792 -7.62641 2.16983
lowerback 2.2888 1.91603 -0.526684
upperback 1.72447 2.54547 -1.25484
thorax 0.51864 1.27431 -1.03463
lowerneck -9.5186 0.229926 -1.22076
upperneck 11.8483 0.674545 -1.36938
head 5.12892 0.182855 -0.178332
rclavicle -3.32064e-014 1.07344e-014
rhumerus -64.1755 -19.2299 -66.4134
rradius 48.8038
rwrist -6.411
rhand -13.0271 33.2998
rfingers 7.12502
rthumb 13.0671 3.72915
lclavicle -3.32064e-014 1.07344e-014
lhumerus -65.2557 24.8838 57.7863
lradius 36.2674
lwrist 38.8678
lhand -21.1602 31.2792
lfingers 7.12502
lthumb 5.21968 61.1949
rfemur -2.62388 9.83395 19.5844
rtibia 24.8953
rfoot -22.8979 -18.2707
rtoes 7.77216
lfemur -18.8129 10.3 -15.1105
ltibia 40.1845
lfoot -22.6969 19.3322
ltoes -9.38313
720
root 10.2687 17.7669 -17.2767 -356.774 -7.6688 2.21069
lowerback 2.4424 1.31967 -0.741333
upperback 2.06342 1.74751 -0.851238
thorax 0.749503 0.87025 -0.48654
lowerneck -10.8931 0.844605 -1.76655
upperneck 12.1266 1.68402 -1.78204
head 5.4497 0.6111 -0.138259
rclavicle -1.676e-014 -7.15625e-015
rhumerus -61.2489 -17.4198 -67.7806
rradius 47.3322
rwrist -5.68205
rhand -13.5893 33.2094
rfingers 7.12502
rthumb 12.5251 3.60482
lclavicle -1.676e-014 -7.15625e-015
lhumerus -64.2687 25.9892 58.998
lradius 35.7601
lwrist 36.6197
lhand -20.3239 30.8429
lfingers 7.12502
lthumb 6.02708 60.7372
rfemur -2.86403 8.70024 19.3784
rtibia 24.9344
rfoot -22.7293 -16.7618
rtoes 7.73928
lfemur -19.5554 10.0936 -15.0233
ltibia 41.2659
lfoot -22.2136 19.5985
ltoes -8.86846
721
root 10.2409 17.7748 -17.3009 -356.652 -7.79526 2.45241
lowerback 2.10059 1.31712 -0.923839
upperback 1.98792 1.7462 -0.924145
thorax 0.860225 0.867849 -0.451468
lowerneck -9.98352 1.03013 -1.13337
upperneck 11.697 1.86551 -2.25696
head 5.17233 0.707462 -0.381162
rclavicle -4.68511e-014 -9.34288e-015
rhumerus -60.2129 -17.0579 -68.317
rradius 46.1606
rwrist -4.5827
rhand -13.8852 32.5947
rfingers 7.12502
rthumb 12.2398 2.97289
lclavicle -4.68511e-014 -9.34288e-015
lhumerus -62.8566 24.8448 60.475
lradius 35.1695
lwrist 34.3799
lhand -18.6201 30.5216
lfingers 7.12502
lthumb 7.67187 60.3624
rfemur -3.18278 7.94396 19.0137
rtibia 24.9703
rfoot -22.5322 -15.8603
rtoes 7.62785
lfemur -20.4162 9.84541 -15.1801
ltibia 42.3437
lfoot -21.7604 19.863
ltoes -7.66679
722
root 10.2067 17.7764 -17.3248 -356.72 -8.06343 2.46346
lowerback 1.94438 1.34812 -1.06589
upperback 1.90669 1.78706 -0.853355
thorax 0.857867 0.886308 -0.297362
lowerneck -8.99748 1.14807 -0.723697
upperneck 11.4154 1.9773 -2.5594
head 4.92633 0.771514 -0.539633
rclavicle -1.32192e-014 -8.94531e-015
rhumerus -59.537 -16.298 -68.9412
rradius 45.8453
rwrist -3.57918
rhand -14.2225 31.538
rfingers 7.12502
rthumb 11.9146 1.89699
lclavicle -1.32192e-014 -8.94531e-015
lhumerus -61.6279 23.8882 61.6567
lradius 34.4412
lwrist 32.1671
lhand -17.0106 29.9134
lfingers 7.12502
lthumb 9.22515 59.6916
rfemur -3.24464 8.08906 19.1391
rtibia 25.0299
rfoot -22.2442 -16.027
rtoes 7.00101
lfemur -21.0385 9.75599 -15.0068
ltibia 43.4223
lfoot -21.062 20.1638
ltoes -7.11582
723
root 10.1763 17.7737 -17.357 -356.873 -8.12727 2.35554
lowerback 2.21763 1.2613 -1.11451
upperback 2.01983 1.66647 -0.730822
thorax 0.81619 0.824462 -0.148422
lowerneck -9.41993 1.26881 -0.510617
upperneck 11.788 2.14444 -2.69438
head 5.11821 0.844974 -0.601427
rclavicle -6.78353e-015 -3.08116e-015
rhumerus -58.2115 -15.5422 -69.8615
rradius 45.36
rwrist -2.72846
rhand -14.4513 30.8565
rfingers 7.12502
rthumb 11.6939 1.20288
lclavicle -6.78353e-015 -3.08116e-015
lhumerus -60.0425 23.3126 62.8535
lradius 33.7963
lwrist 29.7751
lhand -17.1178 28.8619
lfingers 7.12502
lthumb 9.12167 58.6447
rfemur -3.18317 8.22403 19.451
rtibia 25.1022
rfoot -21.9361 -16.322
rtoes 6.24341
lfemur -21.6424 9.59741 -14.7137
ltibia 44.5027
lfoot -19.9501 20.4815
ltoes -6.54577
